<svg width="992" height="305" viewBox="0 0 992 305" fill="none" xmlns="http://www.w3.org/2000/svg">
<path d="M525.839 59.9515V226.24H496.753V59.9515H525.839Z" fill="#000064"/>
<path d="M610.065 59.9515C628.945 59.9515 645.444 63.3809 659.562 70.2398C673.85 76.9392 684.821 86.6693 692.476 99.43C700.3 112.031 704.212 126.786 704.212 143.694C704.212 160.602 700.3 175.277 692.476 187.718C684.821 200.16 673.85 209.731 659.562 216.43C645.444 222.97 628.945 226.24 610.065 226.24H552.147V59.9515H610.065ZM610.065 203.988C630.816 203.988 646.72 198.724 657.776 188.197C668.832 177.669 674.361 162.835 674.361 143.694C674.361 124.393 668.832 109.32 657.776 98.473C646.72 87.6263 630.816 82.203 610.065 82.203H581.233V203.988H610.065Z" fill="#000064"/>
<path d="M752.981 81.9637V130.774H814.215V153.025H752.981V203.988H821.869V226.24H723.894V59.7122H821.869V81.9637H752.981Z" fill="#000064"/>
<path d="M991.828 226.24H962.742L875.228 102.062V226.24H846.142V59.7122H875.228L962.742 183.651V59.7122H991.828V226.24Z" fill="#000064"/>
<path d="M525.839 59.9515V226.24H496.753V59.9515H525.839Z" fill="#000064"/>
<path d="M610.065 59.9515C628.945 59.9515 645.444 63.3809 659.562 70.2398C673.85 76.9392 684.821 86.6693 692.476 99.43C700.3 112.031 704.212 126.786 704.212 143.694C704.212 160.602 700.3 175.277 692.476 187.718C684.821 200.16 673.85 209.731 659.562 216.43C645.444 222.97 628.945 226.24 610.065 226.24H552.147V59.9515H610.065ZM610.065 203.988C630.816 203.988 646.72 198.724 657.776 188.197C668.832 177.669 674.361 162.835 674.361 143.694C674.361 124.393 668.832 109.32 657.776 98.473C646.72 87.6263 630.816 82.203 610.065 82.203H581.233V203.988H610.065Z" fill="#000064"/>
<path d="M752.981 81.9637V130.774H814.215V153.025H752.981V203.988H821.869V226.24H723.894V59.7122H821.869V81.9637H752.981Z" fill="#000064"/>
<path d="M991.828 226.24H962.742L875.228 102.062V226.24H846.142V59.7122H875.228L962.742 183.651V59.7122H991.828V226.24Z" fill="#000064"/>
<path d="M432.002 191.962H357.1L344.23 226.238H313.6L377.691 58.2397H411.668L475.759 226.238H444.872L432.002 191.962ZM423.765 169.514L394.68 91.5496L365.336 169.514H423.765Z" fill="#000064"/>
<path d="M432.002 191.962H357.1L344.23 226.238H313.6L377.691 58.2397H411.668L475.759 226.238H444.872L432.002 191.962ZM423.765 169.514L394.68 91.5496L365.336 169.514H423.765Z" fill="#000064"/>
<path fill-rule="evenodd" clip-rule="evenodd" d="M159.492 304.765C243.312 304.765 308.045 236.659 308.045 152.647C308.045 68.6354 236.408 0.530273 152.588 0.530273C68.7685 0.530273 0.819092 68.6354 0.819092 152.647C0.819092 236.659 75.6725 304.765 159.492 304.765ZM137.669 224.158L108.11 224.158L168.314 124.12L151.64 97.7022L81.9351 224.158H52.115L142.759 60.4025L160.26 60.3558C160.26 60.3558 185.447 103.947 189.868 111.237C195.361 124.975 186.651 145.631 186.651 145.631L137.669 224.158ZM192.269 224.158H164.528L195.713 173.024L191.808 165.211C185.837 155.206 201.911 131.975 201.911 131.975C201.911 131.975 253.426 223.45 254.061 224.356C249.418 224.34 223.692 224.158 223.692 224.158L208.125 196.956L192.269 224.158Z" fill="#000064"/>
</svg>
